# xmcd
#
# Track frame offsets: 
#        150
#        19594
#        38618
#        57742
#        69063
#        84123
#        99823
#        113431
#        127759
#        145059
#        164846
#        181845
#        194838
#        209592
#
# Disc length: 2987 seconds
#
# Revision: 6
# Processed by: cddbd v1.5.2PL0 Copyright (c) Steve Scherf et al.
# Submitted via: ExactAudioCopy v0.99pb5
#
DISCID=b30ba90e
DTITLE=Сергей Трофимов - Следующая остановка
DYEAR=2007
DGENRE=Blues
TTITLE0=Остров по имени Счастье
TTITLE1=Сегодня в городе моем...
TTITLE2=Кукольный театр
TTITLE3=Откровения депутата
TTITLE4=Да здравствует футбол
TTITLE5=Это другой рассказ
TTITLE6=Город Сочи
TTITLE7=Я теперь буду верен тебе
TTITLE8=Умничка
TTITLE9=Первая любовь
TTITLE10=Посвящение однокласникам
TTITLE11=Возвращение
TTITLE12=Напиши пару строк...
TTITLE13=Московская песня
EXTD=
EXTT0=
EXTT1=
EXTT2=
EXTT3=
EXTT4=
EXTT5=
EXTT6=
EXTT7=
EXTT8=
EXTT9=
EXTT10=
EXTT11=
EXTT12=
EXTT13=
PLAYORDER=
